<svg width="156" height="65" viewBox="0 0 156 65" fill="none" xmlns="http://www.w3.org/2000/svg">
<ellipse cx="2.5" cy="2" rx="2.5" ry="2" fill="#DDA66E"/>
<ellipse cx="152.5" cy="2" rx="2.5" ry="2" fill="#DDA66E"/>
<ellipse cx="128.5" cy="2" rx="2.5" ry="2" fill="#DDA66E"/>
<ellipse cx="103.5" cy="2" rx="2.5" ry="2" fill="#DDA66E"/>
<ellipse cx="77.5" cy="2" rx="2.5" ry="2" fill="#DDA66E"/>
<ellipse cx="52.5" cy="2" rx="2.5" ry="2" fill="#DDA66E"/>
<ellipse cx="27.5" cy="2" rx="2.5" ry="2" fill="#DDA66E"/>
<ellipse cx="3.5" cy="34" rx="2.5" ry="2" fill="#DDA66E"/>
<ellipse cx="153.5" cy="34" rx="2.5" ry="2" fill="#DDA66E"/>
<ellipse cx="129.5" cy="34" rx="2.5" ry="2" fill="#DDA66E"/>
<ellipse cx="104.5" cy="34" rx="2.5" ry="2" fill="#DDA66E"/>
<ellipse cx="78.5" cy="34" rx="2.5" ry="2" fill="#DDA66E"/>
<ellipse cx="53.5" cy="34" rx="2.5" ry="2" fill="#DDA66E"/>
<ellipse cx="28.5" cy="34" rx="2.5" ry="2" fill="#DDA66E"/>
<ellipse cx="2.5" cy="63" rx="2.5" ry="2" fill="#DDA66E"/>
<ellipse cx="152.5" cy="63" rx="2.5" ry="2" fill="#DDA66E"/>
<ellipse cx="128.5" cy="63" rx="2.5" ry="2" fill="#DDA66E"/>
<ellipse cx="103.5" cy="63" rx="2.5" ry="2" fill="#DDA66E"/>
<ellipse cx="77.5" cy="63" rx="2.5" ry="2" fill="#DDA66E"/>
<ellipse cx="52.5" cy="63" rx="2.5" ry="2" fill="#DDA66E"/>
<ellipse cx="27.5" cy="63" rx="2.5" ry="2" fill="#DDA66E"/>
</svg>
