<svg width="73" height="72" viewBox="0 0 73 72" fill="none" xmlns="http://www.w3.org/2000/svg">
<path d="M41.342 37.36C41.3612 36.9008 41.4707 36.4499 41.6642 36.0329C41.8578 35.616 42.1315 35.2413 42.4698 34.9302C42.8082 34.6191 43.2045 34.3776 43.6361 34.2197C44.0677 34.0617 44.5263 33.9903 44.9855 34.0095C45.4447 34.0288 45.8957 34.1383 46.3126 34.3318C46.7295 34.5253 47.1042 34.799 47.4153 35.1374C47.7265 35.4757 47.9679 35.872 48.1259 36.3036C48.2838 36.7353 48.3552 37.1938 48.336 37.653M27.305 14.509C27.305 14.0494 27.3955 13.5943 27.5714 13.1696C27.7473 12.745 28.0051 12.3592 28.3301 12.0342C28.6551 11.7092 29.041 11.4513 29.4656 11.2755C29.8902 11.0996 30.3454 11.009 30.805 11.009C31.2646 11.009 31.7197 11.0996 32.1444 11.2755C32.569 11.4513 32.9549 11.7092 33.2799 12.0342C33.6049 12.3592 33.8627 12.745 34.0386 13.1696C34.2145 13.5943 34.305 14.0494 34.305 14.509" fill="white"/>
<path d="M55.336 36.8441H55.203C55.0145 36.1234 54.6002 35.4819 54.0208 35.0137C53.4413 34.5455 52.7272 34.2751 51.983 34.2421C51.1866 34.2091 50.4029 34.449 49.7614 34.9222C49.12 35.3954 48.6595 36.0734 48.456 36.8441H48.257C48.1146 36.0942 47.7303 35.4117 47.163 34.9011C46.5957 34.3905 45.8766 34.08 45.116 34.0171C43.321 33.8731 41.75 35.1171 41.416 36.8441H41.273C41.2125 36.0035 40.8499 35.2132 40.2522 34.6191C39.6544 34.0251 38.8619 33.6674 38.021 33.6121C37.1888 33.5601 36.3655 33.8078 35.7001 34.3101C35.0346 34.8125 34.571 35.5365 34.393 36.3511L34.305 14.1741H27.352V38.0401L26.509 37.7121L24.65 35.4821C23.307 34.0921 18.933 32.9321 17.437 34.1561C14.625 36.4561 20.327 42.7511 19.119 41.4241L22.262 50.4911C24.502 66.6601 34.979 67.1031 38.876 67.2151C47.896 67.4741 55.016 60.8871 55.116 49.0701H55.336V36.8441ZM34.395 36.8871L34.415 36.8881V40.7821L34.41 40.7811L34.395 36.8871Z" fill="#FF8000"/>
<path d="M34.29 23.7101C38.42 22.2601 41.38 18.3201 41.38 13.6901C41.38 7.82006 36.63 3.06006 30.76 3.06006C24.89 3.06006 20.14 7.82006 20.14 13.6901C20.14 18.3401 23.13 22.2901 27.29 23.7301" stroke="#FF8000" stroke-width="2" stroke-miterlimit="10" stroke-linecap="round" stroke-linejoin="round"/>
<path d="M34.29 20.57C35.555 19.9202 36.6163 18.9343 37.3573 17.7205C38.0983 16.5067 38.4902 15.112 38.49 13.69C38.49 9.40995 35.03 5.94995 30.76 5.94995C26.49 5.94995 23.02 9.40995 23.02 13.69C23.02 16.71 24.76 19.33 27.29 20.6M55.316 50.7739C55.316 59.8629 47.949 67.23 38.86 67.23C29.771 67.23 22.405 59.8629 22.405 50.7739M55.316 49.901V37.901M48.324 37.6069C48.363 36.6795 48.7688 35.8055 49.4522 35.1773C49.7906 34.8662 50.1869 34.6248 50.6186 34.4669C51.0502 34.309 51.5088 34.2376 51.968 34.257C52.4272 34.2763 52.8782 34.3858 53.2951 34.5794C53.7119 34.773 54.0866 35.0468 54.3977 35.3851C54.7088 35.7235 54.9502 36.1199 55.1081 36.5515C55.266 36.9832 55.3373 37.4417 55.318 37.901M41.327 37.374C41.366 36.4465 41.7718 35.5725 42.4552 34.9443C42.7936 34.6332 43.1899 34.3918 43.6216 34.2339C44.0532 34.076 44.5118 34.0046 44.971 34.0239C45.4302 34.0433 45.8812 34.1528 46.2981 34.3464C46.7149 34.54 47.0896 34.8138 47.4007 35.1521C47.7118 35.4905 47.9532 35.8869 48.1111 36.3185C48.269 36.7502 48.3403 37.2087 48.321 37.6679" stroke="#FF8000" stroke-width="2" stroke-miterlimit="10" stroke-linecap="round" stroke-linejoin="round"/>
<path d="M41.331 37.2402C41.3679 36.782 41.4947 36.3356 41.7041 35.9264C41.9136 35.5172 42.2015 35.1533 42.5516 34.8554C42.9017 34.5575 43.307 34.3315 43.7444 34.1902C44.1819 34.049 44.6428 33.9953 45.101 34.0322C45.5592 34.0691 46.0056 34.1959 46.4148 34.4053C46.824 34.6147 47.1879 34.9027 47.4858 35.2528C47.7837 35.6028 48.0097 36.0082 48.151 36.4456C48.2922 36.883 48.3459 37.344 48.309 37.8022M34.29 36.8962C34.3614 35.9789 34.791 35.1267 35.486 34.5238C36.181 33.921 37.0854 33.616 38.0035 33.6749C38.9216 33.7338 39.7796 34.1518 40.3919 34.8385C41.0041 35.5252 41.3214 36.4253 41.275 37.3442M34.289 36.8592L34.29 14.5242C34.29 14.0645 34.1995 13.6094 34.0236 13.1848C33.8477 12.7601 33.5899 12.3743 33.2649 12.0493C32.9399 11.7243 32.554 11.4665 32.1294 11.2906C31.7048 11.1147 31.2496 11.0242 30.79 11.0242C30.3304 11.0242 29.8753 11.1147 29.4506 11.2906C29.026 11.4665 28.6401 11.7243 28.3151 12.0493C27.9901 12.3743 27.7323 12.7601 27.5564 13.1848C27.3805 13.6094 27.29 14.0645 27.29 14.5242V42.3152M24.329 36.4712L22.371 34.2572C22.0517 33.9264 21.6704 33.6617 21.2489 33.4783C20.8273 33.2949 20.3737 33.1964 19.9141 33.1883C19.4544 33.1803 18.9977 33.2628 18.5699 33.4313C18.1422 33.5998 17.7518 33.8509 17.4212 34.1703C17.0905 34.4897 16.826 34.8711 16.6427 35.2927C16.4595 35.7143 16.3611 36.1679 16.3532 36.6276C16.3453 37.0872 16.428 37.544 16.5966 37.9717C16.7653 38.3993 17.0165 38.7896 17.336 39.1202L19.157 41.5002M19.103 41.4402C21.056 43.5832 22.477 46.6072 22.405 50.9612M55.331 50.7602C55.331 59.8472 47.964 67.2152 38.876 67.2152C29.788 67.2152 22.42 59.8472 22.42 50.7592" stroke="#FF8000" stroke-width="2" stroke-miterlimit="10" stroke-linecap="round" stroke-linejoin="round"/>
</svg>
